<?xml version="1.0" encoding="utf-8"?>
<!DOCTYPE svg PUBLIC "-//W3C//DTD SVG 1.1//EN" "http://www.w3.org/Graphics/SVG/1.1/DTD/svg11.dtd">
<svg version="1.1" id="Layer_1" xmlns="http://www.w3.org/2000/svg" xmlns:xlink="http://www.w3.org/1999/xlink" x="0px" y="0px"
width="1147px" height="1147px" viewBox="0 0 1147 1147" enable-background="new 0 0 1147 1147" xml:space="preserve">
<rect x="0" y="0" width="1147" height="1147" fill="rgb(255,255,255)" /><g transform="translate(62,62)"><g transform="translate(279,0) scale(0.31,0.31)"><g transform="" style="fill: rgb(0, 0, 0);">
<g>
	<path d="M40.625,0H100v100H40.625L0,50L40.625,0z"/>
</g>
</g></g><g transform="translate(310,0) scale(0.31,0.31)"><g transform="" style="fill: rgb(0, 0, 0);">
<rect width="100" height="100"/>
</g></g><g transform="translate(341,0) scale(0.31,0.31)"><g transform="" style="fill: rgb(0, 0, 0);">
<rect width="100" height="100"/>
</g></g><g transform="translate(372,0) scale(0.31,0.31)"><g transform="" style="fill: rgb(0, 0, 0);">
<g>
	<path d="M100,34.375L65.625,0H0v100h100V34.375z"/>
</g>
</g></g><g transform="translate(434,0) scale(0.31,0.31)"><g transform="" style="fill: rgb(0, 0, 0);">
<g>
	<path d="M40.625,0H100v100H40.625L0,50L40.625,0z"/>
</g>
</g></g><g transform="translate(465,0) scale(0.31,0.31)"><g transform="" style="fill: rgb(0, 0, 0);">
<g>
	<path d="M100,34.375L65.625,0H0v100h100V34.375z"/>
</g>
</g></g><g transform="translate(558,0) scale(0.31,0.31)"><g transform="" style="fill: rgb(0, 0, 0);">
<g>
	<path d="M40.625,0H100v100H40.625L0,50L40.625,0z"/>
</g>
</g></g><g transform="translate(589,0) scale(0.31,0.31)"><g transform="" style="fill: rgb(0, 0, 0);">
<g>
	<path d="M59.375,0H0v100h59.375L100,50L59.375,0z"/>
</g>
</g></g><g transform="translate(651,0) scale(0.31,0.31)"><g transform="" style="fill: rgb(0, 0, 0);">
<g>
	<path d="M40.625,0H100v100H40.625L0,50L40.625,0z"/>
</g>
</g></g><g transform="translate(682,0) scale(0.31,0.31)"><g transform="" style="fill: rgb(0, 0, 0);">
<rect width="100" height="100"/>
</g></g><g transform="translate(713,0) scale(0.31,0.31)"><g transform="" style="fill: rgb(0, 0, 0);">
<g>
	<path d="M100,34.375L65.625,0H0v100h100V34.375z"/>
</g>
</g></g><g transform="translate(310,31) scale(0.31,0.31)"><g transform="" style="fill: rgb(0, 0, 0);">
<g>
	<path d="M34.375,100H100V0H0v65.625"/>
</g>
</g></g><g transform="translate(341,31) scale(0.31,0.31)"><g transform="" style="fill: rgb(0, 0, 0);">
<rect width="100" height="100"/>
</g></g><g transform="translate(372,31) scale(0.31,0.31)"><g transform="" style="fill: rgb(0, 0, 0);">
<g>
	<path d="M100,65.625V0H0v100h65.625"/>
</g>
</g></g><g transform="translate(465,31) scale(0.31,0.31)"><g transform="" style="fill: rgb(0, 0, 0);">
<rect width="100" height="100"/>
</g></g><g transform="translate(527,31) scale(0.31,0.31)"><g transform="" style="fill: rgb(0, 0, 0);">
<g>
	<path d="M100,40.625V100H0V40.625L50,0L100,40.625z"/>
</g>
</g></g><g transform="translate(620,31) scale(0.31,0.31)"><g transform="" style="fill: rgb(0, 0, 0);">
<polygon points="99.999,49.999 99.998,49.999 49.999,0 0,49.999 -0.001,49.999 -0.001,50 0,50 49.999,99.999 99.998,50 99.999,50 
	99.998,50 "/>
</g></g><g transform="translate(713,31) scale(0.31,0.31)"><g transform="" style="fill: rgb(0, 0, 0);">
<rect width="100" height="100"/>
</g></g><g transform="translate(744,31) scale(0.31,0.31)"><g transform="" style="fill: rgb(0, 0, 0);">
<g>
	<path d="M59.375,0H0v100h59.375L100,50L59.375,0z"/>
</g>
</g></g><g transform="translate(434,62) scale(0.31,0.31)"><g transform="" style="fill: rgb(0, 0, 0);">
<g>
	<path d="M40.625,0H100v100H40.625L0,50L40.625,0z"/>
</g>
</g></g><g transform="translate(465,62) scale(0.31,0.31)"><g transform="" style="fill: rgb(0, 0, 0);">
<rect width="100" height="100"/>
</g></g><g transform="translate(496,62) scale(0.31,0.31)"><g transform="" style="fill: rgb(0, 0, 0);">
<rect width="100" height="100"/>
</g></g><g transform="translate(527,62) scale(0.31,0.31)"><g transform="" style="fill: rgb(0, 0, 0);">
<rect width="100" height="100"/>
</g></g><g transform="translate(589,62) scale(0.31,0.31)"><g transform="" style="fill: rgb(0, 0, 0);">
<polygon points="99.999,49.999 99.998,49.999 49.999,0 0,49.999 -0.001,49.999 -0.001,50 0,50 49.999,99.999 99.998,50 99.999,50 
	99.998,50 "/>
</g></g><g transform="translate(713,62) scale(0.31,0.31)"><g transform="" style="fill: rgb(0, 0, 0);">
<rect width="100" height="100"/>
</g></g><g transform="translate(279,93) scale(0.31,0.31)"><g transform="" style="fill: rgb(0, 0, 0);">
<g>
	<path d="M100,40.625V100H0V40.625L50,0L100,40.625z"/>
</g>
</g></g><g transform="translate(403,93) scale(0.31,0.31)"><g transform="" style="fill: rgb(0, 0, 0);">
<polygon points="99.999,49.999 99.998,49.999 49.999,0 0,49.999 -0.001,49.999 -0.001,50 0,50 49.999,99.999 99.998,50 99.999,50 
	99.998,50 "/>
</g></g><g transform="translate(465,93) scale(0.31,0.31)"><g transform="" style="fill: rgb(0, 0, 0);">
<g>
	<path d="M100,59.375V0H0v59.375L50,100L100,59.375z"/>
</g>
</g></g><g transform="translate(527,93) scale(0.31,0.31)"><g transform="" style="fill: rgb(0, 0, 0);">
<rect width="100" height="100"/>
</g></g><g transform="translate(713,93) scale(0.31,0.31)"><g transform="" style="fill: rgb(0, 0, 0);">
<rect width="100" height="100"/>
</g></g><g transform="translate(279,124) scale(0.31,0.31)"><g transform="" style="fill: rgb(0, 0, 0);">
<rect width="100" height="100"/>
</g></g><g transform="translate(310,124) scale(0.31,0.31)"><g transform="" style="fill: rgb(0, 0, 0);">
<g>
	<path d="M100,34.375L65.625,0H0v100h100V34.375z"/>
</g>
</g></g><g transform="translate(496,124) scale(0.31,0.31)"><g transform="" style="fill: rgb(0, 0, 0);">
<g>
	<path d="M40.625,0H100v100H40.625L0,50L40.625,0z"/>
</g>
</g></g><g transform="translate(527,124) scale(0.31,0.31)"><g transform="" style="fill: rgb(0, 0, 0);">
<rect width="100" height="100"/>
</g></g><g transform="translate(589,124) scale(0.31,0.31)"><g transform="" style="fill: rgb(0, 0, 0);">
<polygon points="99.999,49.999 99.998,49.999 49.999,0 0,49.999 -0.001,49.999 -0.001,50 0,50 49.999,99.999 99.998,50 99.999,50 
	99.998,50 "/>
</g></g><g transform="translate(713,124) scale(0.31,0.31)"><g transform="" style="fill: rgb(0, 0, 0);">
<g>
	<path d="M100,59.375V0H0v59.375L50,100L100,59.375z"/>
</g>
</g></g><g transform="translate(248,155) scale(0.31,0.31)"><g transform="" style="fill: rgb(0, 0, 0);">
<g>
	<path d="M0,34.375V100h100V34.375V0H34.375"/>
</g>
</g></g><g transform="translate(279,155) scale(0.31,0.31)"><g transform="" style="fill: rgb(0, 0, 0);">
<rect width="100" height="100"/>
</g></g><g transform="translate(310,155) scale(0.31,0.31)"><g transform="" style="fill: rgb(0, 0, 0);">
<rect width="100" height="100"/>
</g></g><g transform="translate(341,155) scale(0.31,0.31)"><g transform="" style="fill: rgb(0, 0, 0);">
<g>
	<path d="M59.375,0H0v100h59.375L100,50L59.375,0z"/>
</g>
</g></g><g transform="translate(403,155) scale(0.31,0.31)"><g transform="" style="fill: rgb(0, 0, 0);">
<g>
	<path d="M40.625,0H100v100H40.625L0,50L40.625,0z"/>
</g>
</g></g><g transform="translate(434,155) scale(0.31,0.31)"><g transform="" style="fill: rgb(0, 0, 0);">
<g>
	<path d="M100,34.375L65.625,0H0v100h100V34.375z"/>
</g>
</g></g><g transform="translate(527,155) scale(0.31,0.31)"><g transform="" style="fill: rgb(0, 0, 0);">
<g>
	<path d="M34.375,100H100V0H0v65.625"/>
</g>
</g></g><g transform="translate(558,155) scale(0.31,0.31)"><g transform="" style="fill: rgb(0, 0, 0);">
<g>
	<path d="M100,34.375L65.625,0H0v100h100V34.375z"/>
</g>
</g></g><g transform="translate(620,155) scale(0.31,0.31)"><g transform="" style="fill: rgb(0, 0, 0);">
<g>
	<path d="M100,40.625V100H0V40.625L50,0L100,40.625z"/>
</g>
</g></g><g transform="translate(744,155) scale(0.31,0.31)"><g transform="" style="fill: rgb(0, 0, 0);">
<g>
	<path d="M100,40.625V100H0V40.625L50,0L100,40.625z"/>
</g>
</g></g><g transform="translate(248,186) scale(0.31,0.31)"><g transform="" style="fill: rgb(0, 0, 0);">
<g>
	<path d="M100,59.375V0H0v59.375L50,100L100,59.375z"/>
</g>
</g></g><g transform="translate(310,186) scale(0.31,0.31)"><g transform="" style="fill: rgb(0, 0, 0);">
<rect width="100" height="100"/>
</g></g><g transform="translate(372,186) scale(0.31,0.31)"><g transform="" style="fill: rgb(0, 0, 0);">
<polygon points="99.999,49.999 99.998,49.999 49.999,0 0,49.999 -0.001,49.999 -0.001,50 0,50 49.999,99.999 99.998,50 99.999,50 
	99.998,50 "/>
</g></g><g transform="translate(434,186) scale(0.31,0.31)"><g transform="" style="fill: rgb(0, 0, 0);">
<rect width="100" height="100"/>
</g></g><g transform="translate(496,186) scale(0.31,0.31)"><g transform="" style="fill: rgb(0, 0, 0);">
<polygon points="99.999,49.999 99.998,49.999 49.999,0 0,49.999 -0.001,49.999 -0.001,50 0,50 49.999,99.999 99.998,50 99.999,50 
	99.998,50 "/>
</g></g><g transform="translate(558,186) scale(0.31,0.31)"><g transform="" style="fill: rgb(0, 0, 0);">
<rect width="100" height="100"/>
</g></g><g transform="translate(620,186) scale(0.31,0.31)"><g transform="" style="fill: rgb(0, 0, 0);">
<rect width="100" height="100"/>
</g></g><g transform="translate(682,186) scale(0.31,0.31)"><g transform="" style="fill: rgb(0, 0, 0);">
<g>
	<path d="M100,40.625V100H0V40.625L50,0L100,40.625z"/>
</g>
</g></g><g transform="translate(744,186) scale(0.31,0.31)"><g transform="" style="fill: rgb(0, 0, 0);">
<g>
	<path d="M100,59.375V0H0v59.375L50,100L100,59.375z"/>
</g>
</g></g><g transform="translate(279,217) scale(0.31,0.31)"><g transform="" style="fill: rgb(0, 0, 0);">
<g>
	<path d="M40.625,0H100v100H40.625L0,50L40.625,0z"/>
</g>
</g></g><g transform="translate(310,217) scale(0.31,0.31)"><g transform="" style="fill: rgb(0, 0, 0);">
<rect width="100" height="100"/>
</g></g><g transform="translate(341,217) scale(0.31,0.31)"><g transform="" style="fill: rgb(0, 0, 0);">
<g>
	<path d="M59.375,0H0v100h59.375L100,50L59.375,0z"/>
</g>
</g></g><g transform="translate(434,217) scale(0.31,0.31)"><g transform="" style="fill: rgb(0, 0, 0);">
<rect width="100" height="100"/>
</g></g><g transform="translate(527,217) scale(0.31,0.31)"><g transform="" style="fill: rgb(0, 0, 0);">
<g>
	<path d="M40.625,0H100v100H40.625L0,50L40.625,0z"/>
</g>
</g></g><g transform="translate(558,217) scale(0.31,0.31)"><g transform="" style="fill: rgb(0, 0, 0);">
<rect width="100" height="100"/>
</g></g><g transform="translate(589,217) scale(0.31,0.31)"><g transform="" style="fill: rgb(0, 0, 0);">
<rect width="100" height="100"/>
</g></g><g transform="translate(620,217) scale(0.31,0.31)"><g transform="" style="fill: rgb(0, 0, 0);">
<rect width="100" height="100"/>
</g></g><g transform="translate(651,217) scale(0.31,0.31)"><g transform="" style="fill: rgb(0, 0, 0);">
<rect width="100" height="100"/>
</g></g><g transform="translate(682,217) scale(0.31,0.31)"><g transform="" style="fill: rgb(0, 0, 0);">
<rect width="100" height="100"/>
</g></g><g transform="translate(0,248) scale(0.31,0.31)"><g transform="" style="fill: rgb(0, 0, 0);">
<g>
	<path d="M100,40.625V100H0V40.625L50,0L100,40.625z"/>
</g>
</g></g><g transform="translate(93,248) scale(0.31,0.31)"><g transform="" style="fill: rgb(0, 0, 0);">
<polygon points="99.999,49.999 99.998,49.999 49.999,0 0,49.999 -0.001,49.999 -0.001,50 0,50 49.999,99.999 99.998,50 99.999,50 
	99.998,50 "/>
</g></g><g transform="translate(155,248) scale(0.31,0.31)"><g transform="" style="fill: rgb(0, 0, 0);">
<g>
	<path d="M40.625,0H100v100H40.625L0,50L40.625,0z"/>
</g>
</g></g><g transform="translate(186,248) scale(0.31,0.31)"><g transform="" style="fill: rgb(0, 0, 0);">
<g>
	<path d="M59.375,0H0v100h59.375L100,50L59.375,0z"/>
</g>
</g></g><g transform="translate(248,248) scale(0.31,0.31)"><g transform="" style="fill: rgb(0, 0, 0);">
<g>
	<path d="M100,40.625V100H0V40.625L50,0L100,40.625z"/>
</g>
</g></g><g transform="translate(310,248) scale(0.31,0.31)"><g transform="" style="fill: rgb(0, 0, 0);">
<rect width="100" height="100"/>
</g></g><g transform="translate(403,248) scale(0.31,0.31)"><g transform="" style="fill: rgb(0, 0, 0);">
<g>
	<path d="M40.625,0H100v100H40.625L0,50L40.625,0z"/>
</g>
</g></g><g transform="translate(434,248) scale(0.31,0.31)"><g transform="" style="fill: rgb(0, 0, 0);">
<rect width="100" height="100"/>
</g></g><g transform="translate(465,248) scale(0.31,0.31)"><g transform="" style="fill: rgb(0, 0, 0);">
<g>
	<path d="M100,34.375L65.625,0H0v100h100V34.375z"/>
</g>
</g></g><g transform="translate(589,248) scale(0.31,0.31)"><g transform="" style="fill: rgb(0, 0, 0);">
<rect width="100" height="100"/>
</g></g><g transform="translate(651,248) scale(0.31,0.31)"><g transform="" style="fill: rgb(0, 0, 0);">
<g>
	<path d="M34.375,100H100V0H0v65.625"/>
</g>
</g></g><g transform="translate(682,248) scale(0.31,0.31)"><g transform="" style="fill: rgb(0, 0, 0);">
<rect width="100" height="100"/>
</g></g><g transform="translate(713,248) scale(0.31,0.31)"><g transform="" style="fill: rgb(0, 0, 0);">
<g>
	<path d="M59.375,0H0v100h59.375L100,50L59.375,0z"/>
</g>
</g></g><g transform="translate(775,248) scale(0.31,0.31)"><g transform="" style="fill: rgb(0, 0, 0);">
<g>
	<path d="M100,40.625V100H0V40.625L50,0L100,40.625z"/>
</g>
</g></g><g transform="translate(837,248) scale(0.31,0.31)"><g transform="" style="fill: rgb(0, 0, 0);">
<g>
	<path d="M100,40.625V100H0V40.625L50,0L100,40.625z"/>
</g>
</g></g><g transform="translate(0,279) scale(0.31,0.31)"><g transform="" style="fill: rgb(0, 0, 0);">
<g>
	<path d="M100,59.375V0H0v59.375L50,100L100,59.375z"/>
</g>
</g></g><g transform="translate(124,279) scale(0.31,0.31)"><g transform="" style="fill: rgb(0, 0, 0);">
<polygon points="99.999,49.999 99.998,49.999 49.999,0 0,49.999 -0.001,49.999 -0.001,50 0,50 49.999,99.999 99.998,50 99.999,50 
	99.998,50 "/>
</g></g><g transform="translate(217,279) scale(0.31,0.31)"><g transform="" style="fill: rgb(0, 0, 0);">
<g>
	<path d="M40.625,0H100v100H40.625L0,50L40.625,0z"/>
</g>
</g></g><g transform="translate(248,279) scale(0.31,0.31)"><g transform="" style="fill: rgb(0, 0, 0);">
<g>
	<path d="M100,65.625V0H0v100h65.625"/>
</g>
</g></g><g transform="translate(310,279) scale(0.31,0.31)"><g transform="" style="fill: rgb(0, 0, 0);">
<rect width="100" height="100"/>
</g></g><g transform="translate(372,279) scale(0.31,0.31)"><g transform="" style="fill: rgb(0, 0, 0);">
<polygon points="99.999,49.999 99.998,49.999 49.999,0 0,49.999 -0.001,49.999 -0.001,50 0,50 49.999,99.999 99.998,50 99.999,50 
	99.998,50 "/>
</g></g><g transform="translate(434,279) scale(0.31,0.31)"><g transform="" style="fill: rgb(0, 0, 0);">
<g>
	<path d="M34.375,100H100V0H0v65.625"/>
</g>
</g></g><g transform="translate(465,279) scale(0.31,0.31)"><g transform="" style="fill: rgb(0, 0, 0);">
<rect width="100" height="100"/>
</g></g><g transform="translate(496,279) scale(0.31,0.31)"><g transform="" style="fill: rgb(0, 0, 0);">
<g>
	<path d="M100,34.375L65.625,0H0v100h100V34.375z"/>
</g>
</g></g><g transform="translate(558,279) scale(0.31,0.31)"><g transform="" style="fill: rgb(0, 0, 0);">
<g>
	<path d="M40.625,0H100v100H40.625L0,50L40.625,0z"/>
</g>
</g></g><g transform="translate(589,279) scale(0.31,0.31)"><g transform="" style="fill: rgb(0, 0, 0);">
<rect width="100" height="100"/>
</g></g><g transform="translate(620,279) scale(0.31,0.31)"><g transform="" style="fill: rgb(0, 0, 0);">
<g>
	<path d="M59.375,0H0v100h59.375L100,50L59.375,0z"/>
</g>
</g></g><g transform="translate(744,279) scale(0.31,0.31)"><g transform="" style="fill: rgb(0, 0, 0);">
<g>
	<path d="M0,34.375V100h100V34.375V0H34.375"/>
</g>
</g></g><g transform="translate(775,279) scale(0.31,0.31)"><g transform="" style="fill: rgb(0, 0, 0);">
<rect width="100" height="100"/>
</g></g><g transform="translate(806,279) scale(0.31,0.31)"><g transform="" style="fill: rgb(0, 0, 0);">
<rect width="100" height="100"/>
</g></g><g transform="translate(837,279) scale(0.31,0.31)"><g transform="" style="fill: rgb(0, 0, 0);">
<rect width="100" height="100"/>
</g></g><g transform="translate(961,279) scale(0.31,0.31)"><g transform="" style="fill: rgb(0, 0, 0);">
<g>
	<path d="M40.625,0H100v100H40.625L0,50L40.625,0z"/>
</g>
</g></g><g transform="translate(992,279) scale(0.31,0.31)"><g transform="" style="fill: rgb(0, 0, 0);">
<g>
	<path d="M100,34.375L65.625,0H0v100h100V34.375z"/>
</g>
</g></g><g transform="translate(62,310) scale(0.31,0.31)"><g transform="" style="fill: rgb(0, 0, 0);">
<g>
	<path d="M40.625,0H100v100H40.625L0,50L40.625,0z"/>
</g>
</g></g><g transform="translate(93,310) scale(0.31,0.31)"><g transform="" style="fill: rgb(0, 0, 0);">
<g>
	<path d="M59.375,0H0v100h59.375L100,50L59.375,0z"/>
</g>
</g></g><g transform="translate(155,310) scale(0.31,0.31)"><g transform="" style="fill: rgb(0, 0, 0);">
<g>
	<path d="M40.625,0H100v100H40.625L0,50L40.625,0z"/>
</g>
</g></g><g transform="translate(186,310) scale(0.31,0.31)"><g transform="" style="fill: rgb(0, 0, 0);">
<g>
	<path d="M59.375,0H0v100h59.375L100,50L59.375,0z"/>
</g>
</g></g><g transform="translate(310,310) scale(0.31,0.31)"><g transform="" style="fill: rgb(0, 0, 0);">
<rect width="100" height="100"/>
</g></g><g transform="translate(496,310) scale(0.31,0.31)"><g transform="" style="fill: rgb(0, 0, 0);">
<rect width="100" height="100"/>
</g></g><g transform="translate(527,310) scale(0.31,0.31)"><g transform="" style="fill: rgb(0, 0, 0);">
<g>
	<path d="M100,34.375L65.625,0H0v100h100V34.375z"/>
</g>
</g></g><g transform="translate(589,310) scale(0.31,0.31)"><g transform="" style="fill: rgb(0, 0, 0);">
<rect width="100" height="100"/>
</g></g><g transform="translate(682,310) scale(0.31,0.31)"><g transform="" style="fill: rgb(0, 0, 0);">
<g>
	<path d="M100,40.625V100H0V40.625L50,0L100,40.625z"/>
</g>
</g></g><g transform="translate(744,310) scale(0.31,0.31)"><g transform="" style="fill: rgb(0, 0, 0);">
<g>
	<path d="M34.375,100H100V0H0v65.625"/>
</g>
</g></g><g transform="translate(775,310) scale(0.31,0.31)"><g transform="" style="fill: rgb(0, 0, 0);">
<rect width="100" height="100"/>
</g></g><g transform="translate(806,310) scale(0.31,0.31)"><g transform="" style="fill: rgb(0, 0, 0);">
<rect width="100" height="100"/>
</g></g><g transform="translate(837,310) scale(0.31,0.31)"><g transform="" style="fill: rgb(0, 0, 0);">
<rect width="100" height="100"/>
</g></g><g transform="translate(868,310) scale(0.31,0.31)"><g transform="" style="fill: rgb(0, 0, 0);">
<g>
	<path d="M100,34.375L65.625,0H0v100h100V34.375z"/>
</g>
</g></g><g transform="translate(930,310) scale(0.31,0.31)"><g transform="" style="fill: rgb(0, 0, 0);">
<polygon points="99.999,49.999 99.998,49.999 49.999,0 0,49.999 -0.001,49.999 -0.001,50 0,50 49.999,99.999 99.998,50 99.999,50 
	99.998,50 "/>
</g></g><g transform="translate(992,310) scale(0.31,0.31)"><g transform="" style="fill: rgb(0, 0, 0);">
<rect width="100" height="100"/>
</g></g><g transform="translate(0,341) scale(0.31,0.31)"><g transform="" style="fill: rgb(0, 0, 0);">
<g>
	<path d="M40.625,0H100v100H40.625L0,50L40.625,0z"/>
</g>
</g></g><g transform="translate(31,341) scale(0.31,0.31)"><g transform="" style="fill: rgb(0, 0, 0);">
<g>
	<path d="M59.375,0H0v100h59.375L100,50L59.375,0z"/>
</g>
</g></g><g transform="translate(279,341) scale(0.31,0.31)"><g transform="" style="fill: rgb(0, 0, 0);">
<g>
	<path d="M40.625,0H100v100H40.625L0,50L40.625,0z"/>
</g>
</g></g><g transform="translate(310,341) scale(0.31,0.31)"><g transform="" style="fill: rgb(0, 0, 0);">
<rect width="100" height="100"/>
</g></g><g transform="translate(341,341) scale(0.31,0.31)"><g transform="" style="fill: rgb(0, 0, 0);">
<rect width="100" height="100"/>
</g></g><g transform="translate(372,341) scale(0.31,0.31)"><g transform="" style="fill: rgb(0, 0, 0);">
<g>
	<path d="M100,34.375L65.625,0H0v100h100V34.375z"/>
</g>
</g></g><g transform="translate(434,341) scale(0.31,0.31)"><g transform="" style="fill: rgb(0, 0, 0);">
<polygon points="99.999,49.999 99.998,49.999 49.999,0 0,49.999 -0.001,49.999 -0.001,50 0,50 49.999,99.999 99.998,50 99.999,50 
	99.998,50 "/>
</g></g><g transform="translate(496,341) scale(0.31,0.31)"><g transform="" style="fill: rgb(0, 0, 0);">
<g>
	<path d="M34.375,100H100V0H0v65.625"/>
</g>
</g></g><g transform="translate(527,341) scale(0.31,0.31)"><g transform="" style="fill: rgb(0, 0, 0);">
<g>
	<path d="M100,65.625V0H0v100h65.625"/>
</g>
</g></g><g transform="translate(589,341) scale(0.31,0.31)"><g transform="" style="fill: rgb(0, 0, 0);">
<rect width="100" height="100"/>
</g></g><g transform="translate(620,341) scale(0.31,0.31)"><g transform="" style="fill: rgb(0, 0, 0);">
<rect width="100" height="100"/>
</g></g><g transform="translate(651,341) scale(0.31,0.31)"><g transform="" style="fill: rgb(0, 0, 0);">
<rect width="100" height="100"/>
</g></g><g transform="translate(682,341) scale(0.31,0.31)"><g transform="" style="fill: rgb(0, 0, 0);">
<g>
	<path d="M100,65.625V0H0v100h65.625"/>
</g>
</g></g><g transform="translate(806,341) scale(0.31,0.31)"><g transform="" style="fill: rgb(0, 0, 0);">
<rect width="100" height="100"/>
</g></g><g transform="translate(868,341) scale(0.31,0.31)"><g transform="" style="fill: rgb(0, 0, 0);">
<g>
	<path d="M34.375,100H100V0H0v65.625"/>
</g>
</g></g><g transform="translate(899,341) scale(0.31,0.31)"><g transform="" style="fill: rgb(0, 0, 0);">
<g>
	<path d="M100,34.375L65.625,0H0v100h100V34.375z"/>
</g>
</g></g><g transform="translate(992,341) scale(0.31,0.31)"><g transform="" style="fill: rgb(0, 0, 0);">
<rect width="100" height="100"/>
</g></g><g transform="translate(62,372) scale(0.31,0.31)"><g transform="" style="fill: rgb(0, 0, 0);">
<g>
	<path d="M0,34.375V100h100V34.375V0H34.375"/>
</g>
</g></g><g transform="translate(93,372) scale(0.31,0.31)"><g transform="" style="fill: rgb(0, 0, 0);">
<rect width="100" height="100"/>
</g></g><g transform="translate(124,372) scale(0.31,0.31)"><g transform="" style="fill: rgb(0, 0, 0);">
<rect width="100" height="100"/>
</g></g><g transform="translate(155,372) scale(0.31,0.31)"><g transform="" style="fill: rgb(0, 0, 0);">
<rect width="100" height="100"/>
</g></g><g transform="translate(186,372) scale(0.31,0.31)"><g transform="" style="fill: rgb(0, 0, 0);">
<g>
	<path d="M59.375,0H0v100h59.375L100,50L59.375,0z"/>
</g>
</g></g><g transform="translate(248,372) scale(0.31,0.31)"><g transform="" style="fill: rgb(0, 0, 0);">
<polygon points="99.999,49.999 99.998,49.999 49.999,0 0,49.999 -0.001,49.999 -0.001,50 0,50 49.999,99.999 99.998,50 99.999,50 
	99.998,50 "/>
</g></g><g transform="translate(310,372) scale(0.31,0.31)"><g transform="" style="fill: rgb(0, 0, 0);">
<rect width="100" height="100"/>
</g></g><g transform="translate(372,372) scale(0.31,0.31)"><g transform="" style="fill: rgb(0, 0, 0);">
<g>
	<path d="M100,59.375V0H0v59.375L50,100L100,59.375z"/>
</g>
</g></g><g transform="translate(465,372) scale(0.31,0.31)"><g transform="" style="fill: rgb(0, 0, 0);">
<g>
	<path d="M100,40.625V100H0V40.625L50,0L100,40.625z"/>
</g>
</g></g><g transform="translate(589,372) scale(0.31,0.31)"><g transform="" style="fill: rgb(0, 0, 0);">
<g>
	<path d="M34.375,100H100V0H0v65.625"/>
</g>
</g></g><g transform="translate(620,372) scale(0.31,0.31)"><g transform="" style="fill: rgb(0, 0, 0);">
<g>
	<path d="M100,65.625V0H0v100h65.625"/>
</g>
</g></g><g transform="translate(713,372) scale(0.31,0.31)"><g transform="" style="fill: rgb(0, 0, 0);">
<g>
	<path d="M40.625,0H100v100H40.625L0,50L40.625,0z"/>
</g>
</g></g><g transform="translate(744,372) scale(0.31,0.31)"><g transform="" style="fill: rgb(0, 0, 0);">
<rect width="100" height="100"/>
</g></g><g transform="translate(775,372) scale(0.31,0.31)"><g transform="" style="fill: rgb(0, 0, 0);">
<rect width="100" height="100"/>
</g></g><g transform="translate(806,372) scale(0.31,0.31)"><g transform="" style="fill: rgb(0, 0, 0);">
<rect width="100" height="100"/>
</g></g><g transform="translate(899,372) scale(0.31,0.31)"><g transform="" style="fill: rgb(0, 0, 0);">
<g>
	<path d="M100,59.375V0H0v59.375L50,100L100,59.375z"/>
</g>
</g></g><g transform="translate(961,372) scale(0.31,0.31)"><g transform="" style="fill: rgb(0, 0, 0);">
<g>
	<path d="M0,34.375V100h100V34.375V0H34.375"/>
</g>
</g></g><g transform="translate(992,372) scale(0.31,0.31)"><g transform="" style="fill: rgb(0, 0, 0);">
<rect width="100" height="100"/>
</g></g><g transform="translate(31,403) scale(0.31,0.31)"><g transform="" style="fill: rgb(0, 0, 0);">
<g>
	<path d="M0,34.375V100h100V34.375V0H34.375"/>
</g>
</g></g><g transform="translate(62,403) scale(0.31,0.31)"><g transform="" style="fill: rgb(0, 0, 0);">
<rect width="100" height="100"/>
</g></g><g transform="translate(310,403) scale(0.31,0.31)"><g transform="" style="fill: rgb(0, 0, 0);">
<rect width="100" height="100"/>
</g></g><g transform="translate(465,403) scale(0.31,0.31)"><g transform="" style="fill: rgb(0, 0, 0);">
<g>
	<path d="M34.375,100H100V0H0v65.625"/>
</g>
</g></g><g transform="translate(496,403) scale(0.31,0.31)"><g transform="" style="fill: rgb(0, 0, 0);">
<rect width="100" height="100"/>
</g></g><g transform="translate(527,403) scale(0.31,0.31)"><g transform="" style="fill: rgb(0, 0, 0);">
<g>
	<path d="M59.375,0H0v100h59.375L100,50L59.375,0z"/>
</g>
</g></g><g transform="translate(682,403) scale(0.31,0.31)"><g transform="" style="fill: rgb(0, 0, 0);">
<polygon points="99.999,49.999 99.998,49.999 49.999,0 0,49.999 -0.001,49.999 -0.001,50 0,50 49.999,99.999 99.998,50 99.999,50 
	99.998,50 "/>
</g></g><g transform="translate(744,403) scale(0.31,0.31)"><g transform="" style="fill: rgb(0, 0, 0);">
<g>
	<path d="M100,59.375V0H0v59.375L50,100L100,59.375z"/>
</g>
</g></g><g transform="translate(806,403) scale(0.31,0.31)"><g transform="" style="fill: rgb(0, 0, 0);">
<rect width="100" height="100"/>
</g></g><g transform="translate(868,403) scale(0.31,0.31)"><g transform="" style="fill: rgb(0, 0, 0);">
<polygon points="99.999,49.999 99.998,49.999 49.999,0 0,49.999 -0.001,49.999 -0.001,50 0,50 49.999,99.999 99.998,50 99.999,50 
	99.998,50 "/>
</g></g><g transform="translate(930,403) scale(0.31,0.31)"><g transform="" style="fill: rgb(0, 0, 0);">
<g>
	<path d="M0,34.375V100h100V34.375V0H34.375"/>
</g>
</g></g><g transform="translate(961,403) scale(0.31,0.31)"><g transform="" style="fill: rgb(0, 0, 0);">
<rect width="100" height="100"/>
</g></g><g transform="translate(992,403) scale(0.31,0.31)"><g transform="" style="fill: rgb(0, 0, 0);">
<g>
	<path d="M100,65.625V0H0v100h65.625"/>
</g>
</g></g><g transform="translate(31,434) scale(0.31,0.31)"><g transform="" style="fill: rgb(0, 0, 0);">
<rect width="100" height="100"/>
</g></g><g transform="translate(62,434) scale(0.31,0.31)"><g transform="" style="fill: rgb(0, 0, 0);">
<rect width="100" height="100"/>
</g></g><g transform="translate(124,434) scale(0.31,0.31)"><g transform="" style="fill: rgb(0, 0, 0);">
<g>
	<path d="M100,40.625V100H0V40.625L50,0L100,40.625z"/>
</g>
</g></g><g transform="translate(186,434) scale(0.31,0.31)"><g transform="" style="fill: rgb(0, 0, 0);">
<g>
	<path d="M40.625,0H100v100H40.625L0,50L40.625,0z"/>
</g>
</g></g><g transform="translate(217,434) scale(0.31,0.31)"><g transform="" style="fill: rgb(0, 0, 0);">
<g>
	<path d="M59.375,0H0v100h59.375L100,50L59.375,0z"/>
</g>
</g></g><g transform="translate(279,434) scale(0.31,0.31)"><g transform="" style="fill: rgb(0, 0, 0);">
<g>
	<path d="M40.625,0H100v100H40.625L0,50L40.625,0z"/>
</g>
</g></g><g transform="translate(310,434) scale(0.31,0.31)"><g transform="" style="fill: rgb(0, 0, 0);">
<rect width="100" height="100"/>
</g></g><g transform="translate(372,434) scale(0.31,0.31)"><g transform="" style="fill: rgb(0, 0, 0);">
<g>
	<path d="M40.625,0H100v100H40.625L0,50L40.625,0z"/>
</g>
</g></g><g transform="translate(403,434) scale(0.31,0.31)"><g transform="" style="fill: rgb(0, 0, 0);">
<rect width="100" height="100"/>
</g></g><g transform="translate(434,434) scale(0.31,0.31)"><g transform="" style="fill: rgb(0, 0, 0);">
<g>
	<path d="M100,34.375L65.625,0H0v100h100V34.375z"/>
</g>
</g></g><g transform="translate(558,434) scale(0.31,0.31)"><g transform="" style="fill: rgb(0, 0, 0);">
<g>
	<path d="M100,40.625V100H0V40.625L50,0L100,40.625z"/>
</g>
</g></g><g transform="translate(620,434) scale(0.31,0.31)"><g transform="" style="fill: rgb(0, 0, 0);">
<g>
	<path d="M40.625,0H100v100H40.625L0,50L40.625,0z"/>
</g>
</g></g><g transform="translate(651,434) scale(0.31,0.31)"><g transform="" style="fill: rgb(0, 0, 0);">
<g>
	<path d="M100,34.375L65.625,0H0v100h100V34.375z"/>
</g>
</g></g><g transform="translate(713,434) scale(0.31,0.31)"><g transform="" style="fill: rgb(0, 0, 0);">
<g>
	<path d="M100,40.625V100H0V40.625L50,0L100,40.625z"/>
</g>
</g></g><g transform="translate(775,434) scale(0.31,0.31)"><g transform="" style="fill: rgb(0, 0, 0);">
<g>
	<path d="M40.625,0H100v100H40.625L0,50L40.625,0z"/>
</g>
</g></g><g transform="translate(806,434) scale(0.31,0.31)"><g transform="" style="fill: rgb(0, 0, 0);">
<rect width="100" height="100"/>
</g></g><g transform="translate(837,434) scale(0.31,0.31)"><g transform="" style="fill: rgb(0, 0, 0);">
<g>
	<path d="M100,34.375L65.625,0H0v100h100V34.375z"/>
</g>
</g></g><g transform="translate(930,434) scale(0.31,0.31)"><g transform="" style="fill: rgb(0, 0, 0);">
<g>
	<path d="M34.375,100H100V0H0v65.625"/>
</g>
</g></g><g transform="translate(961,434) scale(0.31,0.31)"><g transform="" style="fill: rgb(0, 0, 0);">
<rect width="100" height="100"/>
</g></g><g transform="translate(31,465) scale(0.31,0.31)"><g transform="" style="fill: rgb(0, 0, 0);">
<g>
	<path d="M34.375,100H100V0H0v65.625"/>
</g>
</g></g><g transform="translate(62,465) scale(0.31,0.31)"><g transform="" style="fill: rgb(0, 0, 0);">
<g>
	<path d="M100,65.625V0H0v100h65.625"/>
</g>
</g></g><g transform="translate(124,465) scale(0.31,0.31)"><g transform="" style="fill: rgb(0, 0, 0);">
<rect width="100" height="100"/>
</g></g><g transform="translate(248,465) scale(0.31,0.31)"><g transform="" style="fill: rgb(0, 0, 0);">
<g>
	<path d="M100,40.625V100H0V40.625L50,0L100,40.625z"/>
</g>
</g></g><g transform="translate(310,465) scale(0.31,0.31)"><g transform="" style="fill: rgb(0, 0, 0);">
<g>
	<path d="M100,59.375V0H0v59.375L50,100L100,59.375z"/>
</g>
</g></g><g transform="translate(434,465) scale(0.31,0.31)"><g transform="" style="fill: rgb(0, 0, 0);">
<rect width="100" height="100"/>
</g></g><g transform="translate(465,465) scale(0.31,0.31)"><g transform="" style="fill: rgb(0, 0, 0);">
<g>
	<path d="M59.375,0H0v100h59.375L100,50L59.375,0z"/>
</g>
</g></g><g transform="translate(527,465) scale(0.31,0.31)"><g transform="" style="fill: rgb(0, 0, 0);">
<g>
	<path d="M40.625,0H100v100H40.625L0,50L40.625,0z"/>
</g>
</g></g><g transform="translate(558,465) scale(0.31,0.31)"><g transform="" style="fill: rgb(0, 0, 0);">
<g>
	<path d="M100,65.625V0H0v100h65.625"/>
</g>
</g></g><g transform="translate(651,465) scale(0.31,0.31)"><g transform="" style="fill: rgb(0, 0, 0);">
<rect width="100" height="100"/>
</g></g><g transform="translate(713,465) scale(0.31,0.31)"><g transform="" style="fill: rgb(0, 0, 0);">
<rect width="100" height="100"/>
</g></g><g transform="translate(806,465) scale(0.31,0.31)"><g transform="" style="fill: rgb(0, 0, 0);">
<rect width="100" height="100"/>
</g></g><g transform="translate(837,465) scale(0.31,0.31)"><g transform="" style="fill: rgb(0, 0, 0);">
<g>
	<path d="M100,65.625V0H0v100h65.625"/>
</g>
</g></g><g transform="translate(961,465) scale(0.31,0.31)"><g transform="" style="fill: rgb(0, 0, 0);">
<rect width="100" height="100"/>
</g></g><g transform="translate(0,496) scale(0.31,0.31)"><g transform="" style="fill: rgb(0, 0, 0);">
<g>
	<path d="M100,40.625V100H0V40.625L50,0L100,40.625z"/>
</g>
</g></g><g transform="translate(124,496) scale(0.31,0.31)"><g transform="" style="fill: rgb(0, 0, 0);">
<g>
	<path d="M100,59.375V0H0v59.375L50,100L100,59.375z"/>
</g>
</g></g><g transform="translate(186,496) scale(0.31,0.31)"><g transform="" style="fill: rgb(0, 0, 0);">
<polygon points="99.999,49.999 99.998,49.999 49.999,0 0,49.999 -0.001,49.999 -0.001,50 0,50 49.999,99.999 99.998,50 99.999,50 
	99.998,50 "/>
</g></g><g transform="translate(248,496) scale(0.31,0.31)"><g transform="" style="fill: rgb(0, 0, 0);">
<rect width="100" height="100"/>
</g></g><g transform="translate(341,496) scale(0.31,0.31)"><g transform="" style="fill: rgb(0, 0, 0);">
<g>
	<path d="M40.625,0H100v100H40.625L0,50L40.625,0z"/>
</g>
</g></g><g transform="translate(372,496) scale(0.31,0.31)"><g transform="" style="fill: rgb(0, 0, 0);">
<rect width="100" height="100"/>
</g></g><g transform="translate(403,496) scale(0.31,0.31)"><g transform="" style="fill: rgb(0, 0, 0);">
<rect width="100" height="100"/>
</g></g><g transform="translate(434,496) scale(0.31,0.31)"><g transform="" style="fill: rgb(0, 0, 0);">
<g>
	<path d="M100,65.625V0H0v100h65.625"/>
</g>
</g></g><g transform="translate(589,496) scale(0.31,0.31)"><g transform="" style="fill: rgb(0, 0, 0);">
<g>
	<path d="M40.625,0H100v100H40.625L0,50L40.625,0z"/>
</g>
</g></g><g transform="translate(620,496) scale(0.31,0.31)"><g transform="" style="fill: rgb(0, 0, 0);">
<rect width="100" height="100"/>
</g></g><g transform="translate(651,496) scale(0.31,0.31)"><g transform="" style="fill: rgb(0, 0, 0);">
<rect width="100" height="100"/>
</g></g><g transform="translate(682,496) scale(0.31,0.31)"><g transform="" style="fill: rgb(0, 0, 0);">
<rect width="100" height="100"/>
</g></g><g transform="translate(713,496) scale(0.31,0.31)"><g transform="" style="fill: rgb(0, 0, 0);">
<rect width="100" height="100"/>
</g></g><g transform="translate(744,496) scale(0.31,0.31)"><g transform="" style="fill: rgb(0, 0, 0);">
<g>
	<path d="M100,34.375L65.625,0H0v100h100V34.375z"/>
</g>
</g></g><g transform="translate(806,496) scale(0.31,0.31)"><g transform="" style="fill: rgb(0, 0, 0);">
<g>
	<path d="M100,59.375V0H0v59.375L50,100L100,59.375z"/>
</g>
</g></g><g transform="translate(868,496) scale(0.31,0.31)"><g transform="" style="fill: rgb(0, 0, 0);">
<polygon points="99.999,49.999 99.998,49.999 49.999,0 0,49.999 -0.001,49.999 -0.001,50 0,50 49.999,99.999 99.998,50 99.999,50 
	99.998,50 "/>
</g></g><g transform="translate(961,496) scale(0.31,0.31)"><g transform="" style="fill: rgb(0, 0, 0);">
<rect width="100" height="100"/>
</g></g><g transform="translate(0,527) scale(0.31,0.31)"><g transform="" style="fill: rgb(0, 0, 0);">
<g>
	<path d="M100,59.375V0H0v59.375L50,100L100,59.375z"/>
</g>
</g></g><g transform="translate(62,527) scale(0.31,0.31)"><g transform="" style="fill: rgb(0, 0, 0);">
<g>
	<path d="M0,34.375V100h100V34.375V0H34.375"/>
</g>
</g></g><g transform="translate(93,527) scale(0.31,0.31)"><g transform="" style="fill: rgb(0, 0, 0);">
<g>
	<path d="M59.375,0H0v100h59.375L100,50L59.375,0z"/>
</g>
</g></g><g transform="translate(248,527) scale(0.31,0.31)"><g transform="" style="fill: rgb(0, 0, 0);">
<g>
	<path d="M34.375,100H100V0H0v65.625"/>
</g>
</g></g><g transform="translate(279,527) scale(0.31,0.31)"><g transform="" style="fill: rgb(0, 0, 0);">
<rect width="100" height="100"/>
</g></g><g transform="translate(310,527) scale(0.31,0.31)"><g transform="" style="fill: rgb(0, 0, 0);">
<g>
	<path d="M100,34.375L65.625,0H0v100h100V34.375z"/>
</g>
</g></g><g transform="translate(651,527) scale(0.31,0.31)"><g transform="" style="fill: rgb(0, 0, 0);">
<rect width="100" height="100"/>
</g></g><g transform="translate(713,527) scale(0.31,0.31)"><g transform="" style="fill: rgb(0, 0, 0);">
<g>
	<path d="M34.375,100H100V0H0v65.625"/>
</g>
</g></g><g transform="translate(744,527) scale(0.31,0.31)"><g transform="" style="fill: rgb(0, 0, 0);">
<rect width="100" height="100"/>
</g></g><g transform="translate(775,527) scale(0.31,0.31)"><g transform="" style="fill: rgb(0, 0, 0);">
<g>
	<path d="M100,34.375L65.625,0H0v100h100V34.375z"/>
</g>
</g></g><g transform="translate(837,527) scale(0.31,0.31)"><g transform="" style="fill: rgb(0, 0, 0);">
<polygon points="99.999,49.999 99.998,49.999 49.999,0 0,49.999 -0.001,49.999 -0.001,50 0,50 49.999,99.999 99.998,50 99.999,50 
	99.998,50 "/>
</g></g><g transform="translate(899,527) scale(0.31,0.31)"><g transform="" style="fill: rgb(0, 0, 0);">
<polygon points="99.999,49.999 99.998,49.999 49.999,0 0,49.999 -0.001,49.999 -0.001,50 0,50 49.999,99.999 99.998,50 99.999,50 
	99.998,50 "/>
</g></g><g transform="translate(961,527) scale(0.31,0.31)"><g transform="" style="fill: rgb(0, 0, 0);">
<rect width="100" height="100"/>
</g></g><g transform="translate(62,558) scale(0.31,0.31)"><g transform="" style="fill: rgb(0, 0, 0);">
<rect width="100" height="100"/>
</g></g><g transform="translate(124,558) scale(0.31,0.31)"><g transform="" style="fill: rgb(0, 0, 0);">
<polygon points="99.999,49.999 99.998,49.999 49.999,0 0,49.999 -0.001,49.999 -0.001,50 0,50 49.999,99.999 99.998,50 99.999,50 
	99.998,50 "/>
</g></g><g transform="translate(186,558) scale(0.31,0.31)"><g transform="" style="fill: rgb(0, 0, 0);">
<g>
	<path d="M40.625,0H100v100H40.625L0,50L40.625,0z"/>
</g>
</g></g><g transform="translate(217,558) scale(0.31,0.31)"><g transform="" style="fill: rgb(0, 0, 0);">
<g>
	<path d="M59.375,0H0v100h59.375L100,50L59.375,0z"/>
</g>
</g></g><g transform="translate(279,558) scale(0.31,0.31)"><g transform="" style="fill: rgb(0, 0, 0);">
<rect width="100" height="100"/>
</g></g><g transform="translate(310,558) scale(0.31,0.31)"><g transform="" style="fill: rgb(0, 0, 0);">
<rect width="100" height="100"/>
</g></g><g transform="translate(341,558) scale(0.31,0.31)"><g transform="" style="fill: rgb(0, 0, 0);">
<g>
	<path d="M100,34.375L65.625,0H0v100h100V34.375z"/>
</g>
</g></g><g transform="translate(496,558) scale(0.31,0.31)"><g transform="" style="fill: rgb(0, 0, 0);">
<g>
	<path d="M100,40.625V100H0V40.625L50,0L100,40.625z"/>
</g>
</g></g><g transform="translate(558,558) scale(0.31,0.31)"><g transform="" style="fill: rgb(0, 0, 0);">
<g>
	<path d="M100,40.625V100H0V40.625L50,0L100,40.625z"/>
</g>
</g></g><g transform="translate(651,558) scale(0.31,0.31)"><g transform="" style="fill: rgb(0, 0, 0);">
<rect width="100" height="100"/>
</g></g><g transform="translate(744,558) scale(0.31,0.31)"><g transform="" style="fill: rgb(0, 0, 0);">
<rect width="100" height="100"/>
</g></g><g transform="translate(775,558) scale(0.31,0.31)"><g transform="" style="fill: rgb(0, 0, 0);">
<rect width="100" height="100"/>
</g></g><g transform="translate(806,558) scale(0.31,0.31)"><g transform="" style="fill: rgb(0, 0, 0);">
<g>
	<path d="M59.375,0H0v100h59.375L100,50L59.375,0z"/>
</g>
</g></g><g transform="translate(930,558) scale(0.31,0.31)"><g transform="" style="fill: rgb(0, 0, 0);">
<g>
	<path d="M40.625,0H100v100H40.625L0,50L40.625,0z"/>
</g>
</g></g><g transform="translate(961,558) scale(0.31,0.31)"><g transform="" style="fill: rgb(0, 0, 0);">
<rect width="100" height="100"/>
</g></g><g transform="translate(992,558) scale(0.31,0.31)"><g transform="" style="fill: rgb(0, 0, 0);">
<g>
	<path d="M59.375,0H0v100h59.375L100,50L59.375,0z"/>
</g>
</g></g><g transform="translate(31,589) scale(0.31,0.31)"><g transform="" style="fill: rgb(0, 0, 0);">
<g>
	<path d="M0,34.375V100h100V34.375V0H34.375"/>
</g>
</g></g><g transform="translate(62,589) scale(0.31,0.31)"><g transform="" style="fill: rgb(0, 0, 0);">
<rect width="100" height="100"/>
</g></g><g transform="translate(279,589) scale(0.31,0.31)"><g transform="" style="fill: rgb(0, 0, 0);">
<g>
	<path d="M100,59.375V0H0v59.375L50,100L100,59.375z"/>
</g>
</g></g><g transform="translate(341,589) scale(0.31,0.31)"><g transform="" style="fill: rgb(0, 0, 0);">
<g>
	<path d="M100,59.375V0H0v59.375L50,100L100,59.375z"/>
</g>
</g></g><g transform="translate(434,589) scale(0.31,0.31)"><g transform="" style="fill: rgb(0, 0, 0);">
<g>
	<path d="M40.625,0H100v100H40.625L0,50L40.625,0z"/>
</g>
</g></g><g transform="translate(465,589) scale(0.31,0.31)"><g transform="" style="fill: rgb(0, 0, 0);">
<rect width="100" height="100"/>
</g></g><g transform="translate(496,589) scale(0.31,0.31)"><g transform="" style="fill: rgb(0, 0, 0);">
<rect width="100" height="100"/>
</g></g><g transform="translate(527,589) scale(0.31,0.31)"><g transform="" style="fill: rgb(0, 0, 0);">
<rect width="100" height="100"/>
</g></g><g transform="translate(558,589) scale(0.31,0.31)"><g transform="" style="fill: rgb(0, 0, 0);">
<rect width="100" height="100"/>
</g></g><g transform="translate(589,589) scale(0.31,0.31)"><g transform="" style="fill: rgb(0, 0, 0);">
<rect width="100" height="100"/>
</g></g><g transform="translate(620,589) scale(0.31,0.31)"><g transform="" style="fill: rgb(0, 0, 0);">
<rect width="100" height="100"/>
</g></g><g transform="translate(651,589) scale(0.31,0.31)"><g transform="" style="fill: rgb(0, 0, 0);">
<rect width="100" height="100"/>
</g></g><g transform="translate(682,589) scale(0.31,0.31)"><g transform="" style="fill: rgb(0, 0, 0);">
<rect width="100" height="100"/>
</g></g><g transform="translate(713,589) scale(0.31,0.31)"><g transform="" style="fill: rgb(0, 0, 0);">
<rect width="100" height="100"/>
</g></g><g transform="translate(744,589) scale(0.31,0.31)"><g transform="" style="fill: rgb(0, 0, 0);">
<rect width="100" height="100"/>
</g></g><g transform="translate(837,589) scale(0.31,0.31)"><g transform="" style="fill: rgb(0, 0, 0);">
<polygon points="99.999,49.999 99.998,49.999 49.999,0 0,49.999 -0.001,49.999 -0.001,50 0,50 49.999,99.999 99.998,50 99.999,50 
	99.998,50 "/>
</g></g><g transform="translate(0,620) scale(0.31,0.31)"><g transform="" style="fill: rgb(0, 0, 0);">
<g>
	<path d="M40.625,0H100v100H40.625L0,50L40.625,0z"/>
</g>
</g></g><g transform="translate(31,620) scale(0.31,0.31)"><g transform="" style="fill: rgb(0, 0, 0);">
<rect width="100" height="100"/>
</g></g><g transform="translate(62,620) scale(0.31,0.31)"><g transform="" style="fill: rgb(0, 0, 0);">
<rect width="100" height="100"/>
</g></g><g transform="translate(93,620) scale(0.31,0.31)"><g transform="" style="fill: rgb(0, 0, 0);">
<g>
	<path d="M100,34.375L65.625,0H0v100h100V34.375z"/>
</g>
</g></g><g transform="translate(186,620) scale(0.31,0.31)"><g transform="" style="fill: rgb(0, 0, 0);">
<g>
	<path d="M40.625,0H100v100H40.625L0,50L40.625,0z"/>
</g>
</g></g><g transform="translate(217,620) scale(0.31,0.31)"><g transform="" style="fill: rgb(0, 0, 0);">
<rect width="100" height="100"/>
</g></g><g transform="translate(248,620) scale(0.31,0.31)"><g transform="" style="fill: rgb(0, 0, 0);">
<g>
	<path d="M100,34.375L65.625,0H0v100h100V34.375z"/>
</g>
</g></g><g transform="translate(403,620) scale(0.31,0.31)"><g transform="" style="fill: rgb(0, 0, 0);">
<polygon points="99.999,49.999 99.998,49.999 49.999,0 0,49.999 -0.001,49.999 -0.001,50 0,50 49.999,99.999 99.998,50 99.999,50 
	99.998,50 "/>
</g></g><g transform="translate(465,620) scale(0.31,0.31)"><g transform="" style="fill: rgb(0, 0, 0);">
<rect width="100" height="100"/>
</g></g><g transform="translate(496,620) scale(0.31,0.31)"><g transform="" style="fill: rgb(0, 0, 0);">
<rect width="100" height="100"/>
</g></g><g transform="translate(527,620) scale(0.31,0.31)"><g transform="" style="fill: rgb(0, 0, 0);">
<rect width="100" height="100"/>
</g></g><g transform="translate(558,620) scale(0.31,0.31)"><g transform="" style="fill: rgb(0, 0, 0);">
<rect width="100" height="100"/>
</g></g><g transform="translate(589,620) scale(0.31,0.31)"><g transform="" style="fill: rgb(0, 0, 0);">
<rect width="100" height="100"/>
</g></g><g transform="translate(713,620) scale(0.31,0.31)"><g transform="" style="fill: rgb(0, 0, 0);">
<g>
	<path d="M34.375,100H100V0H0v65.625"/>
</g>
</g></g><g transform="translate(744,620) scale(0.31,0.31)"><g transform="" style="fill: rgb(0, 0, 0);">
<rect width="100" height="100"/>
</g></g><g transform="translate(775,620) scale(0.31,0.31)"><g transform="" style="fill: rgb(0, 0, 0);">
<g>
	<path d="M100,34.375L65.625,0H0v100h100V34.375z"/>
</g>
</g></g><g transform="translate(961,620) scale(0.31,0.31)"><g transform="" style="fill: rgb(0, 0, 0);">
<g>
	<path d="M100,40.625V100H0V40.625L50,0L100,40.625z"/>
</g>
</g></g><g transform="translate(62,651) scale(0.31,0.31)"><g transform="" style="fill: rgb(0, 0, 0);">
<g>
	<path d="M34.375,100H100V0H0v65.625"/>
</g>
</g></g><g transform="translate(93,651) scale(0.31,0.31)"><g transform="" style="fill: rgb(0, 0, 0);">
<g>
	<path d="M100,65.625V0H0v100h65.625"/>
</g>
</g></g><g transform="translate(217,651) scale(0.31,0.31)"><g transform="" style="fill: rgb(0, 0, 0);">
<rect width="100" height="100"/>
</g></g><g transform="translate(248,651) scale(0.31,0.31)"><g transform="" style="fill: rgb(0, 0, 0);">
<rect width="100" height="100"/>
</g></g><g transform="translate(279,651) scale(0.31,0.31)"><g transform="" style="fill: rgb(0, 0, 0);">
<g>
	<path d="M100,34.375L65.625,0H0v100h100V34.375z"/>
</g>
</g></g><g transform="translate(372,651) scale(0.31,0.31)"><g transform="" style="fill: rgb(0, 0, 0);">
<g>
	<path d="M100,40.625V100H0V40.625L50,0L100,40.625z"/>
</g>
</g></g><g transform="translate(465,651) scale(0.31,0.31)"><g transform="" style="fill: rgb(0, 0, 0);">
<rect width="100" height="100"/>
</g></g><g transform="translate(496,651) scale(0.31,0.31)"><g transform="" style="fill: rgb(0, 0, 0);">
<g>
	<path d="M100,65.625V0H0v100h65.625"/>
</g>
</g></g><g transform="translate(558,651) scale(0.31,0.31)"><g transform="" style="fill: rgb(0, 0, 0);">
<g>
	<path d="M34.375,100H100V0H0v65.625"/>
</g>
</g></g><g transform="translate(589,651) scale(0.31,0.31)"><g transform="" style="fill: rgb(0, 0, 0);">
<rect width="100" height="100"/>
</g></g><g transform="translate(620,651) scale(0.31,0.31)"><g transform="" style="fill: rgb(0, 0, 0);">
<rect width="100" height="100"/>
</g></g><g transform="translate(651,651) scale(0.31,0.31)"><g transform="" style="fill: rgb(0, 0, 0);">
<g>
	<path d="M100,34.375L65.625,0H0v100h100V34.375z"/>
</g>
</g></g><g transform="translate(744,651) scale(0.31,0.31)"><g transform="" style="fill: rgb(0, 0, 0);">
<g>
	<path d="M34.375,100H100V0H0v65.625"/>
</g>
</g></g><g transform="translate(775,651) scale(0.31,0.31)"><g transform="" style="fill: rgb(0, 0, 0);">
<rect width="100" height="100"/>
</g></g><g transform="translate(806,651) scale(0.31,0.31)"><g transform="" style="fill: rgb(0, 0, 0);">
<g>
	<path d="M100,34.375L65.625,0H0v100h100V34.375z"/>
</g>
</g></g><g transform="translate(899,651) scale(0.31,0.31)"><g transform="" style="fill: rgb(0, 0, 0);">
<g>
	<path d="M100,40.625V100H0V40.625L50,0L100,40.625z"/>
</g>
</g></g><g transform="translate(961,651) scale(0.31,0.31)"><g transform="" style="fill: rgb(0, 0, 0);">
<g>
	<path d="M34.375,100H100V0H0v65.625"/>
</g>
</g></g><g transform="translate(992,651) scale(0.31,0.31)"><g transform="" style="fill: rgb(0, 0, 0);">
<g>
	<path d="M100,34.375L65.625,0H0v100h100V34.375z"/>
</g>
</g></g><g transform="translate(0,682) scale(0.31,0.31)"><g transform="" style="fill: rgb(0, 0, 0);">
<g>
	<path d="M40.625,0H100v100H40.625L0,50L40.625,0z"/>
</g>
</g></g><g transform="translate(31,682) scale(0.31,0.31)"><g transform="" style="fill: rgb(0, 0, 0);">
<g>
	<path d="M100,34.375L65.625,0H0v100h100V34.375z"/>
</g>
</g></g><g transform="translate(155,682) scale(0.31,0.31)"><g transform="" style="fill: rgb(0, 0, 0);">
<g>
	<path d="M40.625,0H100v100H40.625L0,50L40.625,0z"/>
</g>
</g></g><g transform="translate(186,682) scale(0.31,0.31)"><g transform="" style="fill: rgb(0, 0, 0);">
<rect width="100" height="100"/>
</g></g><g transform="translate(217,682) scale(0.31,0.31)"><g transform="" style="fill: rgb(0, 0, 0);">
<rect width="100" height="100"/>
</g></g><g transform="translate(248,682) scale(0.31,0.31)"><g transform="" style="fill: rgb(0, 0, 0);">
<rect width="100" height="100"/>
</g></g><g transform="translate(279,682) scale(0.31,0.31)"><g transform="" style="fill: rgb(0, 0, 0);">
<rect width="100" height="100"/>
</g></g><g transform="translate(310,682) scale(0.31,0.31)"><g transform="" style="fill: rgb(0, 0, 0);">
<g>
	<path d="M100,34.375L65.625,0H0v100h100V34.375z"/>
</g>
</g></g><g transform="translate(372,682) scale(0.31,0.31)"><g transform="" style="fill: rgb(0, 0, 0);">
<rect width="100" height="100"/>
</g></g><g transform="translate(403,682) scale(0.31,0.31)"><g transform="" style="fill: rgb(0, 0, 0);">
<rect width="100" height="100"/>
</g></g><g transform="translate(434,682) scale(0.31,0.31)"><g transform="" style="fill: rgb(0, 0, 0);">
<rect width="100" height="100"/>
</g></g><g transform="translate(465,682) scale(0.31,0.31)"><g transform="" style="fill: rgb(0, 0, 0);">
<g>
	<path d="M100,65.625V0H0v100h65.625"/>
</g>
</g></g><g transform="translate(589,682) scale(0.31,0.31)"><g transform="" style="fill: rgb(0, 0, 0);">
<rect width="100" height="100"/>
</g></g><g transform="translate(651,682) scale(0.31,0.31)"><g transform="" style="fill: rgb(0, 0, 0);">
<rect width="100" height="100"/>
</g></g><g transform="translate(806,682) scale(0.31,0.31)"><g transform="" style="fill: rgb(0, 0, 0);">
<g>
	<path d="M34.375,100H100V0H0v65.625"/>
</g>
</g></g><g transform="translate(837,682) scale(0.31,0.31)"><g transform="" style="fill: rgb(0, 0, 0);">
<g>
	<path d="M100,34.375L65.625,0H0v100h100V34.375z"/>
</g>
</g></g><g transform="translate(899,682) scale(0.31,0.31)"><g transform="" style="fill: rgb(0, 0, 0);">
<g>
	<path d="M34.375,100H100V0H0v65.625"/>
</g>
</g></g><g transform="translate(930,682) scale(0.31,0.31)"><g transform="" style="fill: rgb(0, 0, 0);">
<g>
	<path d="M59.375,0H0v100h59.375L100,50L59.375,0z"/>
</g>
</g></g><g transform="translate(992,682) scale(0.31,0.31)"><g transform="" style="fill: rgb(0, 0, 0);">
<g>
	<path d="M100,59.375V0H0v59.375L50,100L100,59.375z"/>
</g>
</g></g><g transform="translate(31,713) scale(0.31,0.31)"><g transform="" style="fill: rgb(0, 0, 0);">
<g>
	<path d="M34.375,100H100V0H0v65.625"/>
</g>
</g></g><g transform="translate(62,713) scale(0.31,0.31)"><g transform="" style="fill: rgb(0, 0, 0);">
<rect width="100" height="100"/>
</g></g><g transform="translate(93,713) scale(0.31,0.31)"><g transform="" style="fill: rgb(0, 0, 0);">
<rect width="100" height="100"/>
</g></g><g transform="translate(124,713) scale(0.31,0.31)"><g transform="" style="fill: rgb(0, 0, 0);">
<g>
	<path d="M59.375,0H0v100h59.375L100,50L59.375,0z"/>
</g>
</g></g><g transform="translate(217,713) scale(0.31,0.31)"><g transform="" style="fill: rgb(0, 0, 0);">
<rect width="100" height="100"/>
</g></g><g transform="translate(279,713) scale(0.31,0.31)"><g transform="" style="fill: rgb(0, 0, 0);">
<rect width="100" height="100"/>
</g></g><g transform="translate(310,713) scale(0.31,0.31)"><g transform="" style="fill: rgb(0, 0, 0);">
<rect width="100" height="100"/>
</g></g><g transform="translate(341,713) scale(0.31,0.31)"><g transform="" style="fill: rgb(0, 0, 0);">
<rect width="100" height="100"/>
</g></g><g transform="translate(372,713) scale(0.31,0.31)"><g transform="" style="fill: rgb(0, 0, 0);">
<rect width="100" height="100"/>
</g></g><g transform="translate(496,713) scale(0.31,0.31)"><g transform="" style="fill: rgb(0, 0, 0);">
<g>
	<path d="M100,40.625V100H0V40.625L50,0L100,40.625z"/>
</g>
</g></g><g transform="translate(558,713) scale(0.31,0.31)"><g transform="" style="fill: rgb(0, 0, 0);">
<g>
	<path d="M40.625,0H100v100H40.625L0,50L40.625,0z"/>
</g>
</g></g><g transform="translate(589,713) scale(0.31,0.31)"><g transform="" style="fill: rgb(0, 0, 0);">
<g>
	<path d="M100,65.625V0H0v100h65.625"/>
</g>
</g></g><g transform="translate(651,713) scale(0.31,0.31)"><g transform="" style="fill: rgb(0, 0, 0);">
<rect width="100" height="100"/>
</g></g><g transform="translate(682,713) scale(0.31,0.31)"><g transform="" style="fill: rgb(0, 0, 0);">
<g>
	<path d="M59.375,0H0v100h59.375L100,50L59.375,0z"/>
</g>
</g></g><g transform="translate(744,713) scale(0.31,0.31)"><g transform="" style="fill: rgb(0, 0, 0);">
<g>
	<path d="M100,40.625V100H0V40.625L50,0L100,40.625z"/>
</g>
</g></g><g transform="translate(837,713) scale(0.31,0.31)"><g transform="" style="fill: rgb(0, 0, 0);">
<rect width="100" height="100"/>
</g></g><g transform="translate(0,744) scale(0.31,0.31)"><g transform="" style="fill: rgb(0, 0, 0);">
<polygon points="99.999,49.999 99.998,49.999 49.999,0 0,49.999 -0.001,49.999 -0.001,50 0,50 49.999,99.999 99.998,50 99.999,50 
	99.998,50 "/>
</g></g><g transform="translate(93,744) scale(0.31,0.31)"><g transform="" style="fill: rgb(0, 0, 0);">
<g>
	<path d="M100,59.375V0H0v59.375L50,100L100,59.375z"/>
</g>
</g></g><g transform="translate(186,744) scale(0.31,0.31)"><g transform="" style="fill: rgb(0, 0, 0);">
<g>
	<path d="M40.625,0H100v100H40.625L0,50L40.625,0z"/>
</g>
</g></g><g transform="translate(217,744) scale(0.31,0.31)"><g transform="" style="fill: rgb(0, 0, 0);">
<rect width="100" height="100"/>
</g></g><g transform="translate(248,744) scale(0.31,0.31)"><g transform="" style="fill: rgb(0, 0, 0);">
<rect width="100" height="100"/>
</g></g><g transform="translate(279,744) scale(0.31,0.31)"><g transform="" style="fill: rgb(0, 0, 0);">
<g>
	<path d="M100,65.625V0H0v100h65.625"/>
</g>
</g></g><g transform="translate(341,744) scale(0.31,0.31)"><g transform="" style="fill: rgb(0, 0, 0);">
<rect width="100" height="100"/>
</g></g><g transform="translate(372,744) scale(0.31,0.31)"><g transform="" style="fill: rgb(0, 0, 0);">
<rect width="100" height="100"/>
</g></g><g transform="translate(403,744) scale(0.31,0.31)"><g transform="" style="fill: rgb(0, 0, 0);">
<rect width="100" height="100"/>
</g></g><g transform="translate(434,744) scale(0.31,0.31)"><g transform="" style="fill: rgb(0, 0, 0);">
<rect width="100" height="100"/>
</g></g><g transform="translate(465,744) scale(0.31,0.31)"><g transform="" style="fill: rgb(0, 0, 0);">
<rect width="100" height="100"/>
</g></g><g transform="translate(496,744) scale(0.31,0.31)"><g transform="" style="fill: rgb(0, 0, 0);">
<rect width="100" height="100"/>
</g></g><g transform="translate(527,744) scale(0.31,0.31)"><g transform="" style="fill: rgb(0, 0, 0);">
<g>
	<path d="M59.375,0H0v100h59.375L100,50L59.375,0z"/>
</g>
</g></g><g transform="translate(620,744) scale(0.31,0.31)"><g transform="" style="fill: rgb(0, 0, 0);">
<g>
	<path d="M40.625,0H100v100H40.625L0,50L40.625,0z"/>
</g>
</g></g><g transform="translate(651,744) scale(0.31,0.31)"><g transform="" style="fill: rgb(0, 0, 0);">
<rect width="100" height="100"/>
</g></g><g transform="translate(713,744) scale(0.31,0.31)"><g transform="" style="fill: rgb(0, 0, 0);">
<g>
	<path d="M40.625,0H100v100H40.625L0,50L40.625,0z"/>
</g>
</g></g><g transform="translate(744,744) scale(0.31,0.31)"><g transform="" style="fill: rgb(0, 0, 0);">
<rect width="100" height="100"/>
</g></g><g transform="translate(775,744) scale(0.31,0.31)"><g transform="" style="fill: rgb(0, 0, 0);">
<rect width="100" height="100"/>
</g></g><g transform="translate(806,744) scale(0.31,0.31)"><g transform="" style="fill: rgb(0, 0, 0);">
<rect width="100" height="100"/>
</g></g><g transform="translate(837,744) scale(0.31,0.31)"><g transform="" style="fill: rgb(0, 0, 0);">
<rect width="100" height="100"/>
</g></g><g transform="translate(868,744) scale(0.31,0.31)"><g transform="" style="fill: rgb(0, 0, 0);">
<g>
	<path d="M100,34.375L65.625,0H0v100h100V34.375z"/>
</g>
</g></g><g transform="translate(992,744) scale(0.31,0.31)"><g transform="" style="fill: rgb(0, 0, 0);">
<g>
	<path d="M100,40.625V100H0V40.625L50,0L100,40.625z"/>
</g>
</g></g><g transform="translate(248,775) scale(0.31,0.31)"><g transform="" style="fill: rgb(0, 0, 0);">
<g>
	<path d="M100,59.375V0H0v59.375L50,100L100,59.375z"/>
</g>
</g></g><g transform="translate(310,775) scale(0.31,0.31)"><g transform="" style="fill: rgb(0, 0, 0);">
<g>
	<path d="M0,34.375V100h100V34.375V0H34.375"/>
</g>
</g></g><g transform="translate(341,775) scale(0.31,0.31)"><g transform="" style="fill: rgb(0, 0, 0);">
<rect width="100" height="100"/>
</g></g><g transform="translate(372,775) scale(0.31,0.31)"><g transform="" style="fill: rgb(0, 0, 0);">
<rect width="100" height="100"/>
</g></g><g transform="translate(589,775) scale(0.31,0.31)"><g transform="" style="fill: rgb(0, 0, 0);">
<polygon points="99.999,49.999 99.998,49.999 49.999,0 0,49.999 -0.001,49.999 -0.001,50 0,50 49.999,99.999 99.998,50 99.999,50 
	99.998,50 "/>
</g></g><g transform="translate(651,775) scale(0.31,0.31)"><g transform="" style="fill: rgb(0, 0, 0);">
<g>
	<path d="M34.375,100H100V0H0v65.625"/>
</g>
</g></g><g transform="translate(682,775) scale(0.31,0.31)"><g transform="" style="fill: rgb(0, 0, 0);">
<g>
	<path d="M100,34.375L65.625,0H0v100h100V34.375z"/>
</g>
</g></g><g transform="translate(744,775) scale(0.31,0.31)"><g transform="" style="fill: rgb(0, 0, 0);">
<rect width="100" height="100"/>
</g></g><g transform="translate(868,775) scale(0.31,0.31)"><g transform="" style="fill: rgb(0, 0, 0);">
<rect width="100" height="100"/>
</g></g><g transform="translate(899,775) scale(0.31,0.31)"><g transform="" style="fill: rgb(0, 0, 0);">
<g>
	<path d="M100,34.375L65.625,0H0v100h100V34.375z"/>
</g>
</g></g><g transform="translate(961,775) scale(0.31,0.31)"><g transform="" style="fill: rgb(0, 0, 0);">
<g>
	<path d="M0,34.375V100h100V34.375V0H34.375"/>
</g>
</g></g><g transform="translate(992,775) scale(0.31,0.31)"><g transform="" style="fill: rgb(0, 0, 0);">
<g>
	<path d="M100,65.625V0H0v100h65.625"/>
</g>
</g></g><g transform="translate(279,806) scale(0.31,0.31)"><g transform="" style="fill: rgb(0, 0, 0);">
<g>
	<path d="M40.625,0H100v100H40.625L0,50L40.625,0z"/>
</g>
</g></g><g transform="translate(310,806) scale(0.31,0.31)"><g transform="" style="fill: rgb(0, 0, 0);">
<rect width="100" height="100"/>
</g></g><g transform="translate(372,806) scale(0.31,0.31)"><g transform="" style="fill: rgb(0, 0, 0);">
<g>
	<path d="M34.375,100H100V0H0v65.625"/>
</g>
</g></g><g transform="translate(403,806) scale(0.31,0.31)"><g transform="" style="fill: rgb(0, 0, 0);">
<g>
	<path d="M59.375,0H0v100h59.375L100,50L59.375,0z"/>
</g>
</g></g><g transform="translate(620,806) scale(0.31,0.31)"><g transform="" style="fill: rgb(0, 0, 0);">
<g>
	<path d="M100,40.625V100H0V40.625L50,0L100,40.625z"/>
</g>
</g></g><g transform="translate(682,806) scale(0.31,0.31)"><g transform="" style="fill: rgb(0, 0, 0);">
<rect width="100" height="100"/>
</g></g><g transform="translate(744,806) scale(0.31,0.31)"><g transform="" style="fill: rgb(0, 0, 0);">
<rect width="100" height="100"/>
</g></g><g transform="translate(806,806) scale(0.31,0.31)"><g transform="" style="fill: rgb(0, 0, 0);">
<polygon points="99.999,49.999 99.998,49.999 49.999,0 0,49.999 -0.001,49.999 -0.001,50 0,50 49.999,99.999 99.998,50 99.999,50 
	99.998,50 "/>
</g></g><g transform="translate(868,806) scale(0.31,0.31)"><g transform="" style="fill: rgb(0, 0, 0);">
<rect width="100" height="100"/>
</g></g><g transform="translate(899,806) scale(0.31,0.31)"><g transform="" style="fill: rgb(0, 0, 0);">
<rect width="100" height="100"/>
</g></g><g transform="translate(930,806) scale(0.31,0.31)"><g transform="" style="fill: rgb(0, 0, 0);">
<rect width="100" height="100"/>
</g></g><g transform="translate(961,806) scale(0.31,0.31)"><g transform="" style="fill: rgb(0, 0, 0);">
<g>
	<path d="M100,65.625V0H0v100h65.625"/>
</g>
</g></g><g transform="translate(248,837) scale(0.31,0.31)"><g transform="" style="fill: rgb(0, 0, 0);">
<polygon points="99.999,49.999 99.998,49.999 49.999,0 0,49.999 -0.001,49.999 -0.001,50 0,50 49.999,99.999 99.998,50 99.999,50 
	99.998,50 "/>
</g></g><g transform="translate(310,837) scale(0.31,0.31)"><g transform="" style="fill: rgb(0, 0, 0);">
<rect width="100" height="100"/>
</g></g><g transform="translate(434,837) scale(0.31,0.31)"><g transform="" style="fill: rgb(0, 0, 0);">
<g>
	<path d="M100,40.625V100H0V40.625L50,0L100,40.625z"/>
</g>
</g></g><g transform="translate(496,837) scale(0.31,0.31)"><g transform="" style="fill: rgb(0, 0, 0);">
<g>
	<path d="M100,40.625V100H0V40.625L50,0L100,40.625z"/>
</g>
</g></g><g transform="translate(589,837) scale(0.31,0.31)"><g transform="" style="fill: rgb(0, 0, 0);">
<g>
	<path d="M40.625,0H100v100H40.625L0,50L40.625,0z"/>
</g>
</g></g><g transform="translate(620,837) scale(0.31,0.31)"><g transform="" style="fill: rgb(0, 0, 0);">
<rect width="100" height="100"/>
</g></g><g transform="translate(651,837) scale(0.31,0.31)"><g transform="" style="fill: rgb(0, 0, 0);">
<rect width="100" height="100"/>
</g></g><g transform="translate(682,837) scale(0.31,0.31)"><g transform="" style="fill: rgb(0, 0, 0);">
<rect width="100" height="100"/>
</g></g><g transform="translate(744,837) scale(0.31,0.31)"><g transform="" style="fill: rgb(0, 0, 0);">
<rect width="100" height="100"/>
</g></g><g transform="translate(868,837) scale(0.31,0.31)"><g transform="" style="fill: rgb(0, 0, 0);">
<rect width="100" height="100"/>
</g></g><g transform="translate(992,837) scale(0.31,0.31)"><g transform="" style="fill: rgb(0, 0, 0);">
<g>
	<path d="M100,40.625V100H0V40.625L50,0L100,40.625z"/>
</g>
</g></g><g transform="translate(279,868) scale(0.31,0.31)"><g transform="" style="fill: rgb(0, 0, 0);">
<g>
	<path d="M0,34.375V100h100V34.375V0H34.375"/>
</g>
</g></g><g transform="translate(310,868) scale(0.31,0.31)"><g transform="" style="fill: rgb(0, 0, 0);">
<g>
	<path d="M100,65.625V0H0v100h65.625"/>
</g>
</g></g><g transform="translate(403,868) scale(0.31,0.31)"><g transform="" style="fill: rgb(0, 0, 0);">
<g>
	<path d="M40.625,0H100v100H40.625L0,50L40.625,0z"/>
</g>
</g></g><g transform="translate(434,868) scale(0.31,0.31)"><g transform="" style="fill: rgb(0, 0, 0);">
<rect width="100" height="100"/>
</g></g><g transform="translate(465,868) scale(0.31,0.31)"><g transform="" style="fill: rgb(0, 0, 0);">
<rect width="100" height="100"/>
</g></g><g transform="translate(496,868) scale(0.31,0.31)"><g transform="" style="fill: rgb(0, 0, 0);">
<g>
	<path d="M100,65.625V0H0v100h65.625"/>
</g>
</g></g><g transform="translate(620,868) scale(0.31,0.31)"><g transform="" style="fill: rgb(0, 0, 0);">
<g>
	<path d="M100,59.375V0H0v59.375L50,100L100,59.375z"/>
</g>
</g></g><g transform="translate(682,868) scale(0.31,0.31)"><g transform="" style="fill: rgb(0, 0, 0);">
<rect width="100" height="100"/>
</g></g><g transform="translate(744,868) scale(0.31,0.31)"><g transform="" style="fill: rgb(0, 0, 0);">
<g>
	<path d="M34.375,100H100V0H0v65.625"/>
</g>
</g></g><g transform="translate(775,868) scale(0.31,0.31)"><g transform="" style="fill: rgb(0, 0, 0);">
<rect width="100" height="100"/>
</g></g><g transform="translate(806,868) scale(0.31,0.31)"><g transform="" style="fill: rgb(0, 0, 0);">
<rect width="100" height="100"/>
</g></g><g transform="translate(837,868) scale(0.31,0.31)"><g transform="" style="fill: rgb(0, 0, 0);">
<rect width="100" height="100"/>
</g></g><g transform="translate(868,868) scale(0.31,0.31)"><g transform="" style="fill: rgb(0, 0, 0);">
<rect width="100" height="100"/>
</g></g><g transform="translate(899,868) scale(0.31,0.31)"><g transform="" style="fill: rgb(0, 0, 0);">
<g>
	<path d="M100,34.375L65.625,0H0v100h100V34.375z"/>
</g>
</g></g><g transform="translate(961,868) scale(0.31,0.31)"><g transform="" style="fill: rgb(0, 0, 0);">
<g>
	<path d="M40.625,0H100v100H40.625L0,50L40.625,0z"/>
</g>
</g></g><g transform="translate(992,868) scale(0.31,0.31)"><g transform="" style="fill: rgb(0, 0, 0);">
<g>
	<path d="M100,65.625V0H0v100h65.625"/>
</g>
</g></g><g transform="translate(248,899) scale(0.31,0.31)"><g transform="" style="fill: rgb(0, 0, 0);">
<g>
	<path d="M40.625,0H100v100H40.625L0,50L40.625,0z"/>
</g>
</g></g><g transform="translate(279,899) scale(0.31,0.31)"><g transform="" style="fill: rgb(0, 0, 0);">
<g>
	<path d="M100,65.625V0H0v100h65.625"/>
</g>
</g></g><g transform="translate(372,899) scale(0.31,0.31)"><g transform="" style="fill: rgb(0, 0, 0);">
<g>
	<path d="M100,40.625V100H0V40.625L50,0L100,40.625z"/>
</g>
</g></g><g transform="translate(465,899) scale(0.31,0.31)"><g transform="" style="fill: rgb(0, 0, 0);">
<g>
	<path d="M100,59.375V0H0v59.375L50,100L100,59.375z"/>
</g>
</g></g><g transform="translate(527,899) scale(0.31,0.31)"><g transform="" style="fill: rgb(0, 0, 0);">
<g>
	<path d="M100,40.625V100H0V40.625L50,0L100,40.625z"/>
</g>
</g></g><g transform="translate(589,899) scale(0.31,0.31)"><g transform="" style="fill: rgb(0, 0, 0);">
<polygon points="99.999,49.999 99.998,49.999 49.999,0 0,49.999 -0.001,49.999 -0.001,50 0,50 49.999,99.999 99.998,50 99.999,50 
	99.998,50 "/>
</g></g><g transform="translate(682,899) scale(0.31,0.31)"><g transform="" style="fill: rgb(0, 0, 0);">
<g>
	<path d="M34.375,100H100V0H0v65.625"/>
</g>
</g></g><g transform="translate(713,899) scale(0.31,0.31)"><g transform="" style="fill: rgb(0, 0, 0);">
<g>
	<path d="M59.375,0H0v100h59.375L100,50L59.375,0z"/>
</g>
</g></g><g transform="translate(806,899) scale(0.31,0.31)"><g transform="" style="fill: rgb(0, 0, 0);">
<g>
	<path d="M100,59.375V0H0v59.375L50,100L100,59.375z"/>
</g>
</g></g><g transform="translate(868,899) scale(0.31,0.31)"><g transform="" style="fill: rgb(0, 0, 0);">
<rect width="100" height="100"/>
</g></g><g transform="translate(899,899) scale(0.31,0.31)"><g transform="" style="fill: rgb(0, 0, 0);">
<rect width="100" height="100"/>
</g></g><g transform="translate(930,899) scale(0.31,0.31)"><g transform="" style="fill: rgb(0, 0, 0);">
<g>
	<path d="M100,34.375L65.625,0H0v100h100V34.375z"/>
</g>
</g></g><g transform="translate(341,930) scale(0.31,0.31)"><g transform="" style="fill: rgb(0, 0, 0);">
<g>
	<path d="M0,34.375V100h100V34.375V0H34.375"/>
</g>
</g></g><g transform="translate(372,930) scale(0.31,0.31)"><g transform="" style="fill: rgb(0, 0, 0);">
<g>
	<path d="M100,65.625V0H0v100h65.625"/>
</g>
</g></g><g transform="translate(527,930) scale(0.31,0.31)"><g transform="" style="fill: rgb(0, 0, 0);">
<rect width="100" height="100"/>
</g></g><g transform="translate(620,930) scale(0.31,0.31)"><g transform="" style="fill: rgb(0, 0, 0);">
<g>
	<path d="M0,34.375V100h100V34.375V0H34.375"/>
</g>
</g></g><g transform="translate(651,930) scale(0.31,0.31)"><g transform="" style="fill: rgb(0, 0, 0);">
<g>
	<path d="M100,34.375L65.625,0H0v100h100V34.375z"/>
</g>
</g></g><g transform="translate(868,930) scale(0.31,0.31)"><g transform="" style="fill: rgb(0, 0, 0);">
<g>
	<path d="M34.375,100H100V0H0v65.625"/>
</g>
</g></g><g transform="translate(899,930) scale(0.31,0.31)"><g transform="" style="fill: rgb(0, 0, 0);">
<rect width="100" height="100"/>
</g></g><g transform="translate(930,930) scale(0.31,0.31)"><g transform="" style="fill: rgb(0, 0, 0);">
<g>
	<path d="M100,65.625V0H0v100h65.625"/>
</g>
</g></g><g transform="translate(992,930) scale(0.31,0.31)"><g transform="" style="fill: rgb(0, 0, 0);">
<polygon points="99.999,49.999 99.998,49.999 49.999,0 0,49.999 -0.001,49.999 -0.001,50 0,50 49.999,99.999 99.998,50 99.999,50 
	99.998,50 "/>
</g></g><g transform="translate(310,961) scale(0.31,0.31)"><g transform="" style="fill: rgb(0, 0, 0);">
<g>
	<path d="M0,34.375V100h100V34.375V0H34.375"/>
</g>
</g></g><g transform="translate(341,961) scale(0.31,0.31)"><g transform="" style="fill: rgb(0, 0, 0);">
<rect width="100" height="100"/>
</g></g><g transform="translate(465,961) scale(0.31,0.31)"><g transform="" style="fill: rgb(0, 0, 0);">
<g>
	<path d="M40.625,0H100v100H40.625L0,50L40.625,0z"/>
</g>
</g></g><g transform="translate(496,961) scale(0.31,0.31)"><g transform="" style="fill: rgb(0, 0, 0);">
<rect width="100" height="100"/>
</g></g><g transform="translate(527,961) scale(0.31,0.31)"><g transform="" style="fill: rgb(0, 0, 0);">
<rect width="100" height="100"/>
</g></g><g transform="translate(558,961) scale(0.31,0.31)"><g transform="" style="fill: rgb(0, 0, 0);">
<g>
	<path d="M59.375,0H0v100h59.375L100,50L59.375,0z"/>
</g>
</g></g><g transform="translate(620,961) scale(0.31,0.31)"><g transform="" style="fill: rgb(0, 0, 0);">
<g>
	<path d="M34.375,100H100V0H0v65.625"/>
</g>
</g></g><g transform="translate(651,961) scale(0.31,0.31)"><g transform="" style="fill: rgb(0, 0, 0);">
<rect width="100" height="100"/>
</g></g><g transform="translate(713,961) scale(0.31,0.31)"><g transform="" style="fill: rgb(0, 0, 0);">
<g>
	<path d="M40.625,0H100v100H40.625L0,50L40.625,0z"/>
</g>
</g></g><g transform="translate(744,961) scale(0.31,0.31)"><g transform="" style="fill: rgb(0, 0, 0);">
<rect width="100" height="100"/>
</g></g><g transform="translate(775,961) scale(0.31,0.31)"><g transform="" style="fill: rgb(0, 0, 0);">
<g>
	<path d="M100,34.375L65.625,0H0v100h100V34.375z"/>
</g>
</g></g><g transform="translate(248,992) scale(0.31,0.31)"><g transform="" style="fill: rgb(0, 0, 0);">
<g>
	<path d="M40.625,0H100v100H40.625L0,50L40.625,0z"/>
</g>
</g></g><g transform="translate(279,992) scale(0.31,0.31)"><g transform="" style="fill: rgb(0, 0, 0);">
<rect width="100" height="100"/>
</g></g><g transform="translate(310,992) scale(0.31,0.31)"><g transform="" style="fill: rgb(0, 0, 0);">
<rect width="100" height="100"/>
</g></g><g transform="translate(341,992) scale(0.31,0.31)"><g transform="" style="fill: rgb(0, 0, 0);">
<g>
	<path d="M100,65.625V0H0v100h65.625"/>
</g>
</g></g><g transform="translate(403,992) scale(0.31,0.31)"><g transform="" style="fill: rgb(0, 0, 0);">
<g>
	<path d="M40.625,0H100v100H40.625L0,50L40.625,0z"/>
</g>
</g></g><g transform="translate(434,992) scale(0.31,0.31)"><g transform="" style="fill: rgb(0, 0, 0);">
<g>
	<path d="M59.375,0H0v100h59.375L100,50L59.375,0z"/>
</g>
</g></g><g transform="translate(496,992) scale(0.31,0.31)"><g transform="" style="fill: rgb(0, 0, 0);">
<g>
	<path d="M100,59.375V0H0v59.375L50,100L100,59.375z"/>
</g>
</g></g><g transform="translate(651,992) scale(0.31,0.31)"><g transform="" style="fill: rgb(0, 0, 0);">
<g>
	<path d="M100,59.375V0H0v59.375L50,100L100,59.375z"/>
</g>
</g></g><g transform="translate(744,992) scale(0.31,0.31)"><g transform="" style="fill: rgb(0, 0, 0);">
<g>
	<path d="M34.375,100H100V0H0v65.625"/>
</g>
</g></g><g transform="translate(775,992) scale(0.31,0.31)"><g transform="" style="fill: rgb(0, 0, 0);">
<g>
	<path d="M100,65.625V0H0v100h65.625"/>
</g>
</g></g><g transform="translate(868,992) scale(0.31,0.31)"><g transform="" style="fill: rgb(0, 0, 0);">
<g>
	<path d="M40.625,0H100v100H40.625L0,50L40.625,0z"/>
</g>
</g></g><g transform="translate(899,992) scale(0.31,0.31)"><g transform="" style="fill: rgb(0, 0, 0);">
<rect width="100" height="100"/>
</g></g><g transform="translate(930,992) scale(0.31,0.31)"><g transform="" style="fill: rgb(0, 0, 0);">
<rect width="100" height="100"/>
</g></g><g transform="translate(961,992) scale(0.31,0.31)"><g transform="" style="fill: rgb(0, 0, 0);">
<g>
	<path d="M59.375,0H0v100h59.375L100,50L59.375,0z"/>
</g>
</g></g><g transform="translate(0,0) scale(2.17, 2.17)"><g transform="" style="fill: rgb(0, 0, 0);">
<g>
	<rect x="15" y="15" style="fill:none;" width="70" height="70"/>
	<path d="M85,0H15H0v15v70v15h15h70h15V85V15V0H85z M85,85H15V15h70V85z"/>
</g>
</g></g><g transform="translate(806,0) scale(2.17, 2.17)"><g transform="" style="fill: rgb(0, 0, 0);">
<g>
	<rect x="15" y="15" style="fill:none;" width="70" height="70"/>
	<path d="M85,0H15H0v15v70v15h15h70h15V85V15V0H85z M85,85H15V15h70V85z"/>
</g>
</g></g><g transform="translate(0,806) scale(2.17, 2.17)"><g transform="" style="fill: rgb(0, 0, 0);">
<g>
	<rect x="15" y="15" style="fill:none;" width="70" height="70"/>
	<path d="M85,0H15H0v15v70v15h15h70h15V85V15V0H85z M85,85H15V15h70V85z"/>
</g>
</g></g><g transform="translate(62,62) scale(0.93, 0.93)"><g transform="" style="fill: rgb(0, 0, 0);">
<path d="M0,100C5.883,66.733,5.883,33.283-0.003,0.001C16.67,2.956,33.395,4.447,50,4.447c16.601,0,33.321-1.49,50-4.447
	c-5.886,33.269-5.886,66.715,0.003,100C83.331,97.045,66.605,95.553,50,95.553C33.398,95.553,16.676,97.044,0,100z"/>
</g></g><g transform="translate(868,62) scale(0.93, 0.93)"><g transform="" style="fill: rgb(0, 0, 0);">
<path d="M0,100C5.883,66.733,5.883,33.283-0.003,0.001C16.67,2.956,33.395,4.447,50,4.447c16.601,0,33.321-1.49,50-4.447
	c-5.886,33.269-5.886,66.715,0.003,100C83.331,97.045,66.605,95.553,50,95.553C33.398,95.553,16.676,97.044,0,100z"/>
</g></g><g transform="translate(62,868) scale(0.93, 0.93)"><g transform="" style="fill: rgb(0, 0, 0);">
<path d="M0,100C5.883,66.733,5.883,33.283-0.003,0.001C16.67,2.956,33.395,4.447,50,4.447c16.601,0,33.321-1.49,50-4.447
	c-5.886,33.269-5.886,66.715,0.003,100C83.331,97.045,66.605,95.553,50,95.553C33.398,95.553,16.676,97.044,0,100z"/>
</g></g></g></svg>